<svg width="13" height="12" viewBox="0 0 13 12" fill="none" xmlns="http://www.w3.org/2000/svg">
<path fill-rule="evenodd" clip-rule="evenodd" d="M3 3.5C2.86739 3.5 2.74021 3.55268 2.64645 3.64645C2.55268 3.74021 2.5 3.86739 2.5 4V9.5C2.5 9.63261 2.55268 9.75979 2.64645 9.85355C2.74021 9.94732 2.86739 10 3 10H8.5C8.63261 10 8.75978 9.94732 8.85355 9.85355C8.94732 9.75978 9 9.63261 9 9.5V6.5C9 6.22386 9.22386 6 9.5 6C9.77614 6 10 6.22386 10 6.5V9.5C10 9.89783 9.84196 10.2794 9.56066 10.5607C9.27936 10.842 8.89783 11 8.5 11H3C2.60217 11 2.22064 10.842 1.93934 10.5607C1.65804 10.2794 1.5 9.89783 1.5 9.5V4C1.5 3.60218 1.65804 3.22064 1.93934 2.93934C2.22064 2.65804 2.60218 2.5 3 2.5H6C6.27614 2.5 6.5 2.72386 6.5 3C6.5 3.27614 6.27614 3.5 6 3.5H3Z" fill="white"/>
<path fill-rule="evenodd" clip-rule="evenodd" d="M7.5 1.5C7.5 1.22386 7.72386 1 8 1H11C11.2761 1 11.5 1.22386 11.5 1.5V4.5C11.5 4.77614 11.2761 5 11 5C10.7239 5 10.5 4.77614 10.5 4.5V2H8C7.72386 2 7.5 1.77614 7.5 1.5Z" fill="white"/>
<path fill-rule="evenodd" clip-rule="evenodd" d="M11.3536 1.14645C11.5488 1.34171 11.5488 1.65829 11.3536 1.85355L5.85355 7.35355C5.65829 7.54882 5.34171 7.54882 5.14645 7.35355C4.95118 7.15829 4.95118 6.84171 5.14645 6.64645L10.6464 1.14645C10.8417 0.951184 11.1583 0.951184 11.3536 1.14645Z" fill="white"/>
</svg>
