<svg width="108" height="21" viewBox="0 0 108 21" fill="none" xmlns="http://www.w3.org/2000/svg">
<g clip-path="url(#clip0_19435_44631)">
<path d="M68.9842 16.8925L64.8651 11.475L60.7495 16.8925H59.0509L64.005 10.3468L59.4816 4.39746H61.1772L64.8651 9.25061L68.5506 4.39746H70.2462L65.7234 10.3468L70.6798 16.8925H68.9842Z" fill="white"/>
<path d="M36.8724 16.8925L31.9142 10.3468L36.4388 4.39746H34.745L31.0547 9.25177L27.371 4.39746H25.682L30.2012 10.3468L25.2448 16.8925H26.9421L31.0583 11.475L35.1769 16.8925H36.8724Z" fill="white"/>
<path d="M46.3036 10.8222C46.0486 10.613 45.7658 10.4378 45.4627 10.3014C45.931 10.0597 46.3226 9.69925 46.5957 9.25854C46.8688 8.81784 47.013 8.31351 47.013 7.79951C47.013 7.00064 46.7066 4.40039 42.8181 4.40039H37.5782V9.78825H35.8315C35.6057 10.0728 35.0928 10.7593 34.8958 11.0421H37.5782V16.8955H42.8151C45.6537 16.8955 47.4172 15.499 47.4172 13.2485C47.4172 12.2634 47.034 11.4279 46.3036 10.8222ZM39.0245 5.70197H42.8151C43.8422 5.70197 45.5588 5.94925 45.5588 7.6878C45.5588 9.00276 44.5588 9.7865 42.8151 9.7865H39.0245V5.70197ZM42.8151 15.5898H39.0245V11.0415H42.8151C44.2524 11.0415 45.9721 11.425 45.9721 13.2176C45.9721 15.2797 43.996 15.5886 42.8151 15.5886V15.5898Z" fill="white"/>
<path d="M54.2308 4.1084C50.6066 4.1084 48.0737 6.7936 48.0737 10.6378C48.0737 14.4821 50.6066 17.1702 54.2308 17.1702C57.8551 17.1702 60.3759 14.4879 60.3759 10.6378C60.3759 6.78778 57.8503 4.1084 54.2308 4.1084ZM54.2308 15.8482C51.4679 15.8482 49.5357 13.7047 49.5357 10.6378C49.5357 7.57094 51.4703 5.42976 54.2308 5.42976C56.9914 5.42976 58.9098 7.57211 58.9098 10.6378C58.9098 13.7036 56.9854 15.8482 54.2308 15.8482Z" fill="white"/>
<path d="M95.7118 4.39759V14.6514L87.9144 4.3906L86.6356 4.3877V16.8723H88.0717V6.84482L95.7094 16.881L97.148 16.8816V4.39759H95.7118Z" fill="white"/>
<path d="M79.1818 4.10742C75.5587 4.10742 73.0247 6.79321 73.0247 10.6357C73.0247 14.4782 75.5599 17.1698 79.1818 17.1698C82.8036 17.1698 85.3281 14.4875 85.3281 10.6357C85.3281 6.7839 82.8024 4.10742 79.1818 4.10742ZM79.1818 15.8478C76.4189 15.8478 74.4872 13.7037 74.4872 10.6357C74.4872 7.56764 76.4207 5.42704 79.1818 5.42704C81.9429 5.42704 83.8619 7.57055 83.8619 10.6357C83.8619 13.7008 81.9393 15.8478 79.1818 15.8478Z" fill="white"/>
<path d="M100.205 15.6606V11.0419H107.302V9.82007H100.205V5.61161H107.783V4.38916H98.7589V16.8831H107.874V15.6606H100.205Z" fill="white"/>
<path d="M3.2265 3.01154C3.2205 3.01794 3.21449 3.02084 3.21689 3.02084C1.34663 4.80861 0.212893 7.19528 0.0278271 9.73426C-0.157238 12.2732 0.619048 14.7905 2.21143 16.8152C2.21733 16.8239 2.22621 16.8304 2.23652 16.8335C2.24683 16.8366 2.25793 16.836 2.26789 16.832C2.27663 16.8259 2.28279 16.817 2.28522 16.8068C2.28766 16.7966 2.28619 16.786 2.2811 16.7768C1.45763 14.3132 5.67169 8.32957 7.84719 5.81834C7.85595 5.81038 7.86149 5.79965 7.86281 5.78809C7.86269 5.78135 7.86095 5.77474 7.85772 5.76878C7.85448 5.76281 7.84985 5.75767 7.84419 5.75376C4.18031 2.22256 3.20368 3.03074 3.2193 3.0191" fill="white"/>
<path d="M18.3992 3.01178L18.4088 3.02109C20.2789 4.80899 21.4124 7.19568 21.5974 9.73462C21.7823 12.2736 21.006 14.7908 19.4137 16.8154C19.4077 16.825 19.3982 16.832 19.387 16.8352C19.3759 16.8383 19.364 16.8373 19.3536 16.8323C19.3452 16.8259 19.3393 16.817 19.3368 16.807C19.3343 16.7969 19.3354 16.7864 19.3398 16.777C20.1681 14.3135 15.9588 8.32458 13.7833 5.81451C13.7744 5.80664 13.7689 5.79586 13.7677 5.78425C13.7683 5.77753 13.7702 5.77099 13.7734 5.765C13.7766 5.75901 13.781 5.75369 13.7863 5.74934C17.4502 2.21931 18.4196 3.03214 18.4112 3.02109" fill="white"/>
<path d="M10.8114 0C12.9935 0 14.7882 0.581842 16.4436 1.53257C16.4527 1.5375 16.4595 1.54553 16.4629 1.5551C16.4662 1.56467 16.4657 1.5751 16.4616 1.58436C16.4564 1.59295 16.4483 1.59949 16.4386 1.60279C16.4289 1.6061 16.4183 1.60595 16.4087 1.60239C14.3161 1.16368 11.1363 2.91619 10.8354 3.09133C10.829 3.09648 10.8209 3.09936 10.8126 3.09947C10.8043 3.09914 10.7963 3.09629 10.7898 3.09133C9.99213 2.64796 7.05022 1.15379 5.19846 1.61345C5.18893 1.61663 5.17856 1.61657 5.16907 1.6133C5.15957 1.61002 5.15151 1.60371 5.1462 1.59541C5.14179 1.58607 5.14113 1.57547 5.14435 1.56568C5.14757 1.55589 5.15444 1.54761 5.16362 1.54246C6.82017 0.581842 8.6371 0 10.8114 0Z" fill="white"/>
<path d="M10.8114 8.40088C10.8246 8.4026 10.8369 8.40854 10.8462 8.41775C14.0807 10.7981 19.6191 16.6921 17.9277 18.3574L17.9313 18.3533L17.9277 18.3574C15.9573 20.0261 13.4289 20.9458 10.8117 20.9458C8.19445 20.9458 5.66605 20.0261 3.69566 18.3574V18.3574C3.69566 18.3574 3.69566 18.3574 3.69566 18.3533V18.3574C2.00788 16.6921 7.54514 10.7981 10.7778 8.41775C10.7877 8.40875 10.8003 8.40287 10.8138 8.40088" fill="white"/>
</g>
<defs>
<clipPath id="clip0_19435_44631">
<rect width="107.874" height="20.9463" fill="white"/>
</clipPath>
</defs>
</svg>
