<svg width="96" height="21" viewBox="0 0 96 21" fill="none" xmlns="http://www.w3.org/2000/svg">
<g clip-path="url(#clip0_19435_44617)">
<path d="M10.0167 0V19.2781L14.378 20.6695V4.4885C14.378 3.74041 14.7147 3.22424 15.2608 3.3963C16.0089 3.59828 16.1136 4.294 16.1136 5.04956V11.5205C18.8366 12.8296 20.9761 11.5205 20.9761 8.04937C20.9761 4.57827 19.7194 2.91752 16.0238 1.64578C14.0555 0.979874 12.0496 0.430331 10.0167 0V0Z" fill="white"/>
<path d="M15.2081 17.8494L22.2251 15.3508C23.0181 15.059 23.1452 14.655 22.4944 14.4456C21.6286 14.2466 20.7244 14.2932 19.8836 14.5802L15.2081 16.226V13.6077L15.4774 13.518C16.5253 13.1773 17.6059 12.9466 18.7016 12.8297C20.7495 12.625 22.8172 12.8806 24.7536 13.5778C26.8183 14.2286 27.0427 15.1862 26.5266 15.8221C26.0125 16.3276 25.3948 16.7156 24.7162 16.9591L15.2081 20.3779V17.8494Z" fill="white"/>
<path d="M2.01198 17.5796C-0.105089 16.9886 -0.456688 15.7468 0.515819 15.0361C1.26359 14.5489 2.07058 14.1592 2.91717 13.8766L9.17114 11.6323V14.2132L4.68264 15.8216C3.88967 16.1133 3.7625 16.5173 4.41333 16.7268C5.27917 16.9257 6.18336 16.8791 7.02414 16.5921L9.1861 15.844V18.0883L8.75221 18.1631C6.49678 18.5271 4.18675 18.3397 2.01947 17.617" fill="white"/>
<path d="M61.5894 17.6549C62.0403 17.6539 62.4866 17.5641 62.9028 17.3906C63.3191 17.2172 63.697 16.9634 64.0152 16.6439C64.3334 16.3243 64.5855 15.9453 64.7571 15.5283C64.9288 15.1113 65.0166 14.6646 65.0156 14.2137V8.3188C65.0176 7.77052 65.2368 7.24537 65.6252 6.85837C66.0136 6.47138 66.5395 6.25409 67.0878 6.25409H73.7383C73.75 6.25409 73.7617 6.25177 73.7726 6.24726C73.7835 6.24274 73.7934 6.23613 73.8017 6.2278C73.8101 6.21946 73.8167 6.20956 73.8212 6.19867C73.8257 6.18778 73.828 6.17611 73.828 6.16432V4.98235C73.828 4.97056 73.8257 4.95889 73.8212 4.94799C73.8167 4.9371 73.8101 4.92721 73.8017 4.91887C73.7934 4.91054 73.7835 4.90392 73.7726 4.89941C73.7617 4.8949 73.75 4.89258 73.7383 4.89258H65.7188C64.8101 4.89258 63.9386 5.25355 63.2961 5.89609C62.6536 6.53864 62.2926 7.41011 62.2926 8.3188V14.2137C62.2926 14.7633 62.0743 15.2903 61.6857 15.6789C61.2971 16.0676 60.77 16.2859 60.2204 16.2859H53.6597C53.6479 16.2859 53.6363 16.2882 53.6254 16.2927C53.6145 16.2972 53.6046 16.3038 53.5962 16.3122C53.5879 16.3205 53.5813 16.3304 53.5768 16.3413C53.5723 16.3522 53.5699 16.3639 53.5699 16.3756V17.5576C53.5717 17.5809 53.5817 17.6027 53.5982 17.6192C53.6146 17.6357 53.6365 17.6457 53.6597 17.6474L61.5894 17.6549Z" fill="white"/>
<path d="M76.5735 9.72502V4.98217C76.5735 4.97038 76.5758 4.95871 76.5803 4.94782C76.5848 4.93693 76.5914 4.92703 76.5998 4.9187C76.6081 4.91036 76.618 4.90375 76.6289 4.89924C76.6398 4.89472 76.6515 4.8924 76.6633 4.8924H94.7818C94.7942 4.89136 94.8067 4.89292 94.8185 4.89696C94.8302 4.90101 94.841 4.90746 94.8502 4.9159C94.8593 4.92434 94.8666 4.93459 94.8716 4.946C94.8766 4.95741 94.8791 4.96973 94.8791 4.98217V6.16414C94.8791 6.17659 94.8766 6.18891 94.8716 6.20032C94.8666 6.21173 94.8593 6.22198 94.8502 6.23042C94.841 6.23886 94.8302 6.24531 94.8185 6.24935C94.8067 6.2534 94.7942 6.25495 94.7818 6.25391H79.3938C79.3814 6.25288 79.3689 6.25443 79.3571 6.25847C79.3453 6.26252 79.3345 6.26897 79.3254 6.27741C79.3162 6.28585 79.309 6.2961 79.304 6.30751C79.299 6.31892 79.2965 6.33124 79.2965 6.34368V9.41082C79.2985 9.67142 79.4034 9.92067 79.5884 10.1042C79.7733 10.2878 80.0234 10.3908 80.284 10.3908H91.7446C92.6793 10.4332 93.5617 10.8344 94.2082 11.5109C94.8547 12.1874 95.2154 13.0871 95.2154 14.0228C95.2154 14.9585 94.8547 15.8581 94.2082 16.5346C93.5617 17.2111 92.6793 17.6123 91.7446 17.6547H76.6633C76.64 17.653 76.6182 17.643 76.6017 17.6265C76.5852 17.61 76.5752 17.5882 76.5735 17.5649V16.383C76.5735 16.3712 76.5758 16.3595 76.5803 16.3486C76.5848 16.3377 76.5914 16.3278 76.5998 16.3195C76.6081 16.3111 76.618 16.3045 76.6289 16.3C76.6398 16.2955 76.6515 16.2932 76.6633 16.2932H90.3756C90.9778 16.2932 91.5553 16.054 91.9811 15.6282C92.4068 15.2024 92.646 14.6249 92.646 14.0228C92.646 13.4206 92.4068 12.8431 91.9811 12.4173C91.5553 11.9915 90.9778 11.7523 90.3756 11.7523H78.6457C78.1038 11.7524 77.5834 11.5403 77.1961 11.1613C76.8087 10.7824 76.5852 10.2668 76.5735 9.72502Z" fill="white"/>
<path d="M49.6725 10.3908C50.1996 10.3591 50.6947 10.1274 51.0566 9.74294C51.4186 9.35851 51.6202 8.8504 51.6202 8.32236C51.6202 7.79433 51.4186 7.28621 51.0566 6.90178C50.6947 6.51736 50.1996 6.28562 49.6725 6.25391H35.7731C35.7607 6.25495 35.7482 6.2534 35.7364 6.24935C35.7247 6.24531 35.7139 6.23886 35.7047 6.23042C35.6956 6.22198 35.6883 6.21173 35.6833 6.20032C35.6783 6.18891 35.6758 6.17659 35.6758 6.16414V4.98217C35.6758 4.96973 35.6783 4.95741 35.6833 4.946C35.6883 4.93459 35.6956 4.92434 35.7047 4.9159C35.7139 4.90746 35.7247 4.90101 35.7364 4.89696C35.7482 4.89292 35.7607 4.89136 35.7731 4.8924H51.034C51.916 4.9336 52.7482 5.31297 53.3578 5.9517C53.9673 6.59042 54.3075 7.43943 54.3075 8.32236C54.3075 9.2053 53.9673 10.0543 53.3578 10.693C52.7482 11.3318 51.916 11.7111 51.034 11.7523H40.4711C39.9235 11.7523 39.3983 11.9699 39.0111 12.3571C38.6239 12.7443 38.4063 13.2694 38.4063 13.817V17.5574C38.4046 17.5807 38.3946 17.6025 38.3781 17.619C38.3617 17.6355 38.3398 17.6455 38.3166 17.6472H35.7731C35.7485 17.6473 35.7249 17.6381 35.7068 17.6214C35.6888 17.6048 35.6777 17.5819 35.6758 17.5574V13.817C35.6778 12.9077 36.0405 12.0362 36.6842 11.3939C37.3279 10.7515 38.2002 10.3908 39.1095 10.3908H49.6725Z" fill="white"/>
</g>
<defs>
<clipPath id="clip0_19435_44617">
<rect width="95.7546" height="20.9463" fill="white"/>
</clipPath>
</defs>
</svg>
