<svg width="28" height="20" viewBox="0 0 28 20" fill="none" xmlns="http://www.w3.org/2000/svg">
<g clip-path="url(#clip0_5797_73870)">
<path d="M6.16105 9.61436C6.54499 9.61544 6.92852 9.59037 7.30878 9.53934C7.64794 9.49845 7.97693 9.40015 8.28055 9.24898C8.55722 9.10776 8.78922 8.89731 8.95213 8.63981C9.12137 8.37769 9.20599 8.0343 9.20599 7.60964C9.20599 7.18499 9.12137 6.84139 8.95213 6.57883C8.78882 6.32181 8.5569 6.11166 8.28055 5.9703C7.97681 5.81941 7.64788 5.72113 7.30878 5.67994C6.92849 5.62924 6.54498 5.60417 6.16105 5.60493H3.46668V9.61436H6.16105ZM7.11067 3.31891C8.09565 3.31891 8.93467 3.4407 9.62774 3.68428C10.3208 3.92787 10.884 4.24948 11.3174 4.64913C11.7377 5.0297 12.0625 5.49744 12.267 6.01687C12.6646 7.04087 12.6646 8.16871 12.267 9.19272C12.0645 9.71598 11.7396 10.1873 11.3174 10.5702C10.8827 10.9698 10.3195 11.2914 9.62774 11.535C8.93601 11.7786 8.09699 11.9004 7.11067 11.9004H3.46668V16.6968H0V3.31891H7.11067Z" fill="white"/>
<path d="M24.0838 6.88798C23.8713 6.60116 23.61 6.35103 23.3108 6.14818C22.9904 5.93064 22.6364 5.76304 22.2618 5.65153C21.8657 5.53157 21.4528 5.47094 21.0375 5.47175C20.2567 5.47175 19.5941 5.59979 19.0497 5.85588C18.5293 6.09298 18.075 6.44613 17.7247 6.88604C17.3821 7.32591 17.1312 7.82551 16.9859 8.35724C16.8299 8.91341 16.7513 9.48708 16.7522 10.0632C16.7513 10.6173 16.8295 11.1689 16.9846 11.7025C17.1327 12.2216 17.3835 12.7082 17.7233 13.1356C18.0758 13.5712 18.5297 13.9209 19.0483 14.1567C19.5932 14.4128 20.2558 14.5408 21.0362 14.5408C22.0951 14.5408 22.9233 14.266 23.521 13.7163C24.1187 13.1666 24.4832 12.4421 24.6144 11.5428H27.9723C27.8972 12.3356 27.6632 13.1069 27.2832 13.8139C26.9241 14.4778 26.4283 15.0642 25.8259 15.5374C25.1968 16.0253 24.4774 16.3942 23.7057 16.6244C22.8409 16.8825 21.9395 17.009 21.0342 16.9995C19.8254 16.9995 18.7394 16.8214 17.7764 16.4653C16.8133 16.1092 16 15.6188 15.3365 14.9941C14.6748 14.3717 14.1557 13.6227 13.8127 12.7954C13.4549 11.9262 13.2758 10.9982 13.2855 10.0632C13.2766 9.11224 13.4565 8.16841 13.8154 7.28246C14.1576 6.443 14.6764 5.68076 15.3392 5.04365C16.0041 4.40645 16.8174 3.90635 17.7791 3.54335C18.7408 3.18034 19.8269 2.99927 21.0375 3.00013C21.8696 2.99565 22.6983 3.10296 23.4996 3.31895C24.2395 3.51676 24.9407 3.83003 25.5754 4.24629C26.1797 4.64623 26.6941 5.15935 27.0878 5.755C27.4944 6.37954 27.7509 7.08369 27.8386 7.81597H24.4807C24.4231 7.4816 24.2871 7.16425 24.0832 6.88798H24.0838Z" fill="white"/>
</g>
<defs>
<clipPath id="clip0_5797_73870">
<rect width="27.97" height="20" fill="white"/>
</clipPath>
</defs>
</svg>
