<?xml version="1.0" encoding="utf-8"?>
<!-- Generator: Adobe Illustrator 26.0.0, SVG Export Plug-In . SVG Version: 6.00 Build 0)  -->
<svg version="1.1" id="Layer_1" xmlns="http://www.w3.org/2000/svg" xmlns:xlink="http://www.w3.org/1999/xlink" x="0px" y="0px"
	 viewBox="0 0 411 406" style="enable-background:new 0 0 411 406;" xml:space="preserve">
<style type="text/css">
	.st0{fill:#FFFFFF;}
	.st1{fill:#8C8C8C;}
	.st2{fill:#CA0000;}
</style>
<g id="Layer_1_00000070090601817931997450000015683701092748092850_">
	<g>
		<g>
			<path d="M22.15,404.69c-11.29,0-20.47-9.18-20.47-20.47v-46c0-11.29,9.18-20.47,20.47-20.47h28.44c-1.5-2.86-2.26-6.06-2.26-9.56
				v-62.15c0-13.54,11.07-20.88,22.42-21.42c-1.4-2.78-2.11-5.89-2.11-9.27v-35.88h-6.41v-26.53H3.53V43.51
				c0-10.33,9.56-21.4,23.8-21.4h96.9c0.96,0,9.26,0.15,15.94,5.32c4.27-3.34,10.05-5.25,16.02-5.27c0,0,92.93,0.05,96.31,0.05
				c5.59,0,11.42,1.98,15.8,5.34c4.31-3.44,10.16-5.41,16.25-5.44h8.43V1.31h47.88V127.1H180.71v4.62l9.59,0.01
				c5.28,0,10.52,1.78,14.53,4.91c4.26-3.25,9.98-5.1,15.86-5.1h32.22c0.9,0,5.66,0.1,10.61,2.13c2.01,0.83,3.84,1.87,5.45,3.12
				c4.29-3.35,10.1-5.26,16.1-5.26h44.54v-3.78h47.72l-0.01,9.12h31.99v78.43c0,13.95-11.96,21.25-23.77,21.25h-32.18
				c-1.84,0-11.38-0.33-17.98-6.93c-3.78-3.77-5.77-8.73-5.77-14.32v-15.1h-20.52v24.98c8.72,1.71,18.39,8.08,18.39,20.9v62.1
				c0,3.5-0.76,6.7-2.26,9.56h38.63c7.83,0,14.19,6.37,14.19,14.19v58.56c0,7.83-6.37,14.19-14.19,14.19H22.15V404.69z"/>
			<path class="st0" d="M339.61,2.56v123.29H179.46v7.12l10.84,0.01c5.17,0,10.51,1.8,14.53,5.27c4.28-3.61,10.09-5.46,15.87-5.46
				h32.22c0.86,0,5.4,0.1,10.13,2.04c2.26,0.93,4.25,2.13,5.92,3.58c4.3-3.72,10.22-5.62,16.1-5.62h45.79v-3.78h45.22l-0.01,9.12
				h31.99v77.18c0,13.13-11.33,20-22.52,20h-32.18c-1.79,0-10.85-0.33-17.1-6.57c-3.54-3.53-5.41-8.18-5.41-13.44v-16.35h-23.02
				v27.28c9.69,1.5,18.39,8.25,18.39,19.85v62.1c0,4.27-1.21,7.88-3.22,10.81h40.84c7.14,0,12.94,5.8,12.94,12.94v58.56
				c0,7.14-5.81,12.94-12.94,12.94H22.15c-10.6,0-19.22-8.62-19.22-19.22v-46c0-10.6,8.62-19.22,19.22-19.22H52.8
				c-2.01-2.93-3.22-6.54-3.22-10.81v-62.15c0-13.26,11.33-20.2,22.52-20.2h0.8c-1.89-2.87-3.01-6.38-3.01-10.49v-37.13h-6.41
				v-26.53H4.78V43.51c0-9.73,9.06-20.15,22.55-20.15h96.9c1.68,0,9.78,0.41,15.94,5.69c4.28-3.71,10.17-5.62,16.01-5.64
				c0,0,92.92,0.05,96.31,0.05c5.05,0,11.21,1.83,15.81,5.71c4.31-3.81,10.29-5.78,16.24-5.81h9.67V2.56H339.61 M342.11,0.06h-2.5
				h-45.38h-2.5v2.5v18.31h-7.17c-6.02,0.03-11.83,1.88-16.27,5.13c-4.49-3.18-10.25-5.03-15.78-5.03c-3.38,0-96.31-0.05-96.31-0.05
				c-5.9,0.02-11.62,1.81-16.02,4.96c-6.86-4.86-14.97-5.01-15.94-5.01h-96.9c-6.9,0-13.32,2.53-18.07,7.13
				c-4.44,4.29-6.98,9.95-6.98,15.52v108.17v2.5h2.5h56.2v24.03v2.5h2.5h3.91v34.63c0,2.92,0.5,5.65,1.5,8.16
				c-5.2,0.56-10.01,2.46-13.8,5.5c-5.23,4.2-8,10.08-8,17.02v62.15c0,2.98,0.52,5.76,1.55,8.31h-26.5
				c-11.98,0-21.72,9.74-21.72,21.72v46c0,11.98,9.74,21.72,21.72,21.72h341.71c8.51,0,15.44-6.93,15.44-15.44v-58.56
				c0-8.51-6.93-15.44-15.44-15.44h-36.67c1.03-2.55,1.55-5.33,1.55-8.31v-62.1c0-10.96-7.15-19.37-18.39-21.92v-22.71h18.02v13.85
				c0,5.93,2.12,11.19,6.14,15.21c6.95,6.94,16.93,7.3,18.86,7.3h32.18c6.4,0,12.45-2,17.01-5.62c5.24-4.16,8.01-10,8.01-16.88
				v-77.18v-2.5h-2.5h-29.49l0.01-6.62v-2.5h-2.5h-33.97v-0.66V2.56v-2.5H342.11z M181.96,128.35h146.41v0.66v1.28h-43.29
				c-5.93,0-11.68,1.79-16.1,4.95c-1.5-1.07-3.17-1.98-4.97-2.72c-5.17-2.12-10.14-2.23-11.08-2.23h-32.22
				c-5.81,0-11.47,1.73-15.86,4.8c-4.12-2.95-9.31-4.61-14.54-4.61l-8.34-0.01L181.96,128.35L181.96,128.35z"/>
		</g>
		<path class="st0" d="M284.61,116.13h45.29V12.28h-25.94v20.81l-19.34,0.01c0,0-12.89,0.07-12.89,10.48v62.24
			C271.71,116.04,284.61,116.13,284.61,116.13z M297.64,53.93h6.29V95.8h-6.29V53.93z M72.67,131.32V33.09H27.34
			c-7.77,0-12.82,5.56-12.82,10.43l-0.01,62.45c0,10.23,12.88,10.3,12.88,10.3h19.33h0.01v5.25H14.51v20.67l45.37-0.01
			C72.65,142.17,72.67,131.32,72.67,131.32z M46.72,95.59h-6.28V53.92h6.28V95.59z M233.31,53.98h6.25v62.15l0,0h25.74h0.01V43.68
			h-0.01v-0.01c0-7.95-8.79-10.48-12.79-10.48c-8.63,0-14.99,1.8-19.2,5.23V33.2h-25.74v82.93h25.74L233.31,53.98L233.31,53.98z
			 M398.35,168.57v-20.72h-31.99h-0.01l0.01-9.12h-25.77v9.12h-6.39v20.72h6.39v46.74c0,10.3,12.8,10.28,12.8,10.28h32.16
			c0,0,12.8,0.04,12.8-10.28v-41.65h-25.6v31.22h-6.39h-0.01v-36.31H398.35z M330.28,163.33l0.1-20.83H285.1
			c0,0-12.88,0-12.88,10.49v72.67l0,0h25.92v-36.42l32.24-0.01V168.4h-32.24v-5.08L330.28,163.33z M265.75,215.34v-15.58h-25.79V205
			h-6.27v-10.49h32.05v-41.55c0-10.47-12.81-10.45-12.81-10.45h-32.22c0,0-12.82,0-12.82,10.49v62.34
			c0,10.28,12.83,10.32,12.83,10.32l32.21,0.01C252.93,225.67,265.75,225.62,265.75,215.34z M233.69,163.33h6.27v0.01v10.33h-6.27
			V163.33z M79.62,215.35c0,10.24,12.81,10.32,12.81,10.32h32.17c0,0,12.81-0.06,12.81-10.32h-0.01v-41.61h-25.61v31.29h-6.4V168.5
			h32.01v-20.65h-32.36l0.02-9.48h-25.8l0.01,9.48h-6.06v20.65h6.41C79.62,168.5,79.62,215.35,79.62,215.35z M105.03,85.1h6.23
			v46.65c0,10.3,12.97,10.31,12.97,10.31h19.75v83.61h0.01h25.76v-62.21h6.23v62.21h25.75v-72.52c0-10.45-11.43-10.45-11.43-10.45
			l-20.55-0.02v-21.25l-32.73,0.01V79.85c0.04-4.48-3.22-6.12-3.22-6.12s3.21-1.26,3.22-4.19V43.68c0-10.48-12.8-10.59-12.8-10.59
			H79.27v99.57h25.76L105.03,85.1L105.03,85.1z M105.03,53.97l6.23,0.02v10.32h-6.23V53.97z M156.22,116.07h44.97V43.61
			c0-10.48-12.82-10.48-12.82-10.48h-32.15c0,0-12.8,0.04-12.8,10.48v15.37h25.76V53.9h6.25v10.31h-19.21c0,0-12.8,0.01-12.8,10.3
			v31.23C143.43,116.04,156.22,116.07,156.22,116.07z M169.19,84.99h6.25v10.45h-6.25V84.99z M104.26,235.56H72.11
			c0,0-12.8-0.02-12.8,10.48v15.37h25.75v-5.07h6.25v10.31h-19.2c0,0-12.8-0.02-12.8,10.31v31.24c0,10.27,12.8,10.29,12.8,10.29
			h44.96v-72.45C117.07,235.54,104.26,235.56,104.26,235.56z M91.31,297.87h-6.25v-10.46h6.25V297.87z M155.61,297.79h-6.23v-62.32
			h-25.73v72.56c0,10.39,12.79,10.46,12.79,10.46h32.12c0,0,12.78-0.07,12.78-10.35c0-0.44,0-72.56,0-72.56h-25.72L155.61,297.79
			L155.61,297.79z M220.08,240.74l0.01-9.42h-25.77v9.42l0,0h-6.4v20.72h6.4v46.74l0,0c0,10.08,12.8,10.28,12.8,10.28h32.16
			c0,0,12.79-0.05,12.79-10.28v-41.66h-25.59v31.22h-6.39v-36.3h31.98v-20.72L220.08,240.74L220.08,240.74z M303.68,235.64h-32.22
			c0,0-12.83,0.02-12.83,10.45v62.1c0,10.29,12.83,10.29,12.83,10.29h32.22c0,0,12.84-0.02,12.84-10.29v-62.1
			C316.52,235.56,303.68,235.64,303.68,235.64z M290.72,297.89h-6.26v-41.5h6.26V297.89z"/>
		<path class="st1" d="M38.6,97.52l-0.82,0.81h11.77v-47.1l0,0l-0.82,0.81h0.01v45.48C48.74,97.52,38.6,97.52,38.6,97.52z
			 M67.05,137.88l0.02-0.01l0.02-0.01l0.04-0.03c0.07-0.06,0.13-0.12,0.21-0.17l-0.58-0.58c-0.04,0.03-0.08,0.07-0.12,0.1
			l-0.04,0.03c-1.18,0.78-2.28,1.34-3.35,1.72c-1.11,0.38-2.22,0.56-3.4,0.56H17.31v-15.22h32.23v-10.69H27.47
			c-10.19,0-10.16-7.6-10.16-7.6v-62.3c0,0-0.24-6.81,9.63-7.82L70,35.84v0.01l0.81-0.81v-0.01H70l-43.06,0.02H26.9h-0.04
			c-10.5,1.09-10.35,8.59-10.35,8.66v62.26c0,0-0.02,8.42,10.97,8.42h21.26v9.06H16.51v16.86h43.34c1.28,0,2.48-0.2,3.66-0.61
			C64.67,139.29,65.82,138.7,67.05,137.88z M230.6,113.41h-20.22V35.97h20.26v8.27c1.99-1.63,4.47-3.66,4.47-3.66
			c1.81-1.47,4.16-2.61,6.96-3.38c2.97-0.82,6.51-1.23,10.51-1.23c2.51,0,4.63,0.69,6.69,2.18l0.59-0.58
			c-2.21-1.64-4.53-2.41-7.29-2.41c-4.08,0-7.69,0.42-10.73,1.26c-2.92,0.81-5.36,1.99-7.26,3.53c0,0-1.52,1.24-3.14,2.57v-7.36
			h-21.9v79.07h21.87L230.6,113.41z M242.37,51.26l-0.81,0.82v62.15h21.88v-0.01l-0.82-0.82v0.01h-20.25V51.26z M284.68,114.23
			h43.35l-0.82-0.82h-42.53c0,0-10.13-0.07-10.13-7.57V43.6c0-7.65,10.13-7.74,10.13-7.74h22.1v-20.8h20.44v0.03l0.82-0.82v-0.02
			h-22.07v20.79h-21.28c0,0-10.95,0.04-10.95,8.51v62.29C273.73,114.15,284.68,114.23,284.68,114.23z M295.5,97.75l-0.81,0.81h11.77
			V51.22l-0.81,0.82v45.71H295.5z M363.69,150.62L363.69,150.62l31.97,0.01l0.83-0.82h-0.81H364.5v-0.01L363.69,150.62z
			 M363.69,165.87L363.69,165.87l0.82,0.82h31.17h0.79l-0.82-0.82H363.69z M374.76,206.84h-10.25l-0.82,0.82h11.88v-31.22
			l20.11,0.01l0.81-0.81l-21.74-0.01v31.21H374.76z M385.63,222.89c0,0-33.1-0.07-33.29-0.07h-0.01c0,0-8.91,0.12-8.91-7.87v-49.09
			h-6.41v-15.24h6.41v-9.15h20.25l0.81-0.81H342.6v9.15h-6.39v16.87h6.39v48.27c0,8.79,10.48,8.76,10.48,8.76l32.55-0.01
			c0.05-0.01,3.74-0.16,6.9-2.22l-0.59-0.59C388.34,222.84,385.63,222.89,385.63,222.89z M328.49,161.43l-0.83-0.82h-32.17
			l0.81,0.82H328.49z M295.47,186.53l0.82,0.81h32.23l-0.82-0.81H295.47z M274.21,153.02v70.75h22.08l-0.81-0.81h-20.45v-69.94
			c0-7.72,10.14-7.75,10.14-7.75h42.54l0.82-0.82h-43.36C285.16,144.46,274.21,144.46,274.21,153.02z M295.47,171.19h32.23l0.82-0.8
			l-32.23-0.01L295.47,171.19z M231.84,175.61l-0.82,0.82h11.74v-15.82h-11.75l0.82,0.82h10.11v14.18L231.84,175.61L231.84,175.61z
			 M231.84,206.95l-0.82,0.83h11.75v-5.25h20.31l0.81-0.81h-21.94v5.24h-10.11V206.95z M252.99,222.96h-32.21
			c0,0-10.09,0-10.09-8.01v-61.93c0-7.73,10.09-7.75,10.09-7.75H253c4.2,0,6.88,2.29,6.89,2.3l0.58-0.58c0,0-2.96-2.54-7.47-2.54
			h-32.22c0,0-10.9,0-10.9,8.56v61.93c0,8.8,10.83,8.82,10.83,8.82h32.27c2.33,0,4.51-0.68,6.79-2.14l-0.58-0.59
			C257.11,222.34,255.12,222.96,252.99,222.96z M263.07,191.79l-32.05,0.01l0.82,0.81h32.05L263.07,191.79z M102.36,67.08h11.72
			v-15.8l-0.82,0.81l0.01,14.17h-10.1L102.36,67.08z M102.32,129.94H82.08V35.97h42.21c0,0,3.36-0.18,7.2,2.46l0.47-0.66
			c-3.74-2.74-7.67-2.61-7.67-2.61H81.28v95.59h21.87L102.32,129.94z M167.89,123.42v-0.02h-32.72v-0.02l-0.82,0.81v0.02
			c2.16,0,32.72,0.03,32.72,0.03L167.89,123.42z M167.07,145.45L167.07,145.45h22.04c2.19,0.01,4.13,0.58,5.93,1.72l0.6,0.41
			l0.59-0.59l-0.74-0.5c-1.95-1.23-4.03-1.84-6.38-1.86h-21.23l0,0L167.07,145.45z M167.89,223.77l-0.82-0.82v0.01H146.8
			c0,0,0-80.94,0-83.61h-22.5c0,0-10.21-0.02-10.21-7.57V82.39l-0.81,0.82v48.6c0,8.35,11,8.36,11,8.36H146v83.61L167.89,223.77
			L167.89,223.77z M199.85,223.77l-0.81-0.81h-20.25v-62.21h-11.73l0.82,0.81h10.09v62.21L199.85,223.77L199.85,223.77z
			 M71.91,238.22h32.16c3.73,0,6.21,1.85,6.21,1.85l0.58-0.59c0,0-2.79-2.08-6.79-2.08H71.91c0,0-10.87,0-10.87,8.55v13.41h21.83
			l-0.82-0.86l-20.2,0.04v-12.59C61.85,238.2,71.91,238.22,71.91,238.22z M71.9,315.65c0,0-10.06-0.03-10.06-7.55v-31.24
			c0-7.56,10.06-7.56,10.06-7.56h21.94v-15.84H82.11l0.81,0.81h10.1v14.21H71.9c0,0-10.87,0.01-10.87,8.38v31.24
			c0,8.35,10.87,8.37,10.87,8.37h42.91l-0.82-0.85L71.9,315.65z M82.86,299.75l-0.82,0.81h11.8v-15.98H82.06l0.83,0.82h10.13v14.36
			L82.86,299.75L82.86,299.75z M167.19,57.05h0.07v-0.04l-0.81-0.77h-0.07h-20.12v-12.6c0-7.69,10.05-7.73,10.05-7.73h32.09
			c3.76,0,6.22,1.85,6.22,1.85l0.03-0.03c0.02,0.02,0.04,0.03,0.04,0.03l0.58-0.59c0,0-2.77-2.07-6.8-2.07h-0.07h-32.1h-0.07
			c0,0-10.87-0.01-10.87,8.54v13.41h0.07H167.19z M156.22,114.17h0.07h42.84h0.07l-0.81-0.82h-0.07H156.3c0,0-10.05,0-10.05-7.55
			V74.56c0-7.54,10.05-7.56,10.05-7.56h21.87h0.07V51.15h-0.07h-11.66h-0.07l0.8,0.81h0.07h10.04v14.21H156.3h-0.07
			c0,0-10.87,0.01-10.87,8.38v31.24C145.36,114.15,156.22,114.17,156.22,114.17z M167.26,97.44h-0.07l-0.82,0.79v0.02h0.07h11.72
			h0.08V82.27h-0.08h-11.7h-0.07l0.83,0.82h0.07h10.07v14.35C177.36,97.44,167.26,97.44,167.26,97.44z M168.36,315.72h-32.12
			c0,0-10.03-0.1-10.03-7.6v-69.93l20.23,0.01l0.81-0.81l-21.86-0.01v70.74c0,8.35,10.85,8.42,10.85,8.42h32.12
			c3.2,0,5.8-1.53,6.85-2.2l-0.58-0.59C173.68,314.35,171.56,315.72,168.36,315.72z M158.17,237.48h-0.82v0.82v61.4h-10.1
			l-0.81,0.81h11.73V238.3h20.23v0.03l0.82-0.83v-0.01h-0.82h-20.23V237.48z M217.13,243.59h31.97l0.82-0.82h-31.98L217.13,243.59z
			 M249.91,259.64l-0.82-0.81h-31.96l0.82,0.81H249.91z M228.2,299.79h-10.26l-0.81,0.81l11.89,0.01v-31.22h20.09l0.81-0.8
			l-21.72-0.01V299.79z M239.07,315.84h-29.8c0,0-12.4-0.22-12.4-7.93v-49.08h-6.4v-15.23h6.4v-9h20.26l0.81-0.81h-21.89v8.99h-6.4
			v16.87h6.4v48.27c0,8.56,13.19,8.75,13.19,8.75h29.82c1.23,0,4.42-0.67,6.89-2.21l-0.59-0.59
			C242.27,315.72,239.07,315.84,239.07,315.84z M134.47,149.81h-31.18v-0.01l-0.81,0.81v0.01h31.98l0.82-0.82h-0.81V149.81z
			 M134.47,166.68h0.79l-0.82-0.82h-31.96l0,0l0.81,0.81h31.18V166.68z M114.36,207.65v-31.22l20.11,0.01l0.81-0.81l-21.74-0.01
			v31.21h-10.25l-0.81,0.82H114.36z M130.72,220.9c-3.59,1.95-6.3,1.99-6.3,1.99s-33.1-0.07-33.29-0.07h-0.01
			c0,0-8.91,0.12-8.91-7.87v-49.09h-6.4v-15.24h6.4v-9.15h20.25l0.82-0.81H81.39v9.15H75v16.87h6.39v48.27
			c0,8.79,10.47,8.76,10.47,8.76l32.55-0.01c0.05-0.01,3.74-0.16,6.9-2.22L130.72,220.9z M310.41,240.53l0.58-0.58
			c-0.05-0.03-3.02-2.5-7.44-2.5h-0.01l0,0h-32.25c0,0-10.86-0.04-10.86,8.63c0,1.48,0,60.08,0,60.87c0,9.51,12.22,9.53,12.22,9.49
			h30.92c0,0,4.12-0.05,7.02-2.3l-0.58-0.58c-2.94,2.1-6.43,2.07-6.43,2.07h-30.92c0,0-11.4-0.01-11.4-8.67v-60.98
			c0-7.77,10.04-7.72,10.04-7.72h32.25C307.77,238.26,310.4,240.52,310.41,240.53z M282.38,299.72l-0.81,0.8h11.74v-46.98h-11.74
			l0.81,0.81h10.11v45.37L282.38,299.72L282.38,299.72z"/>
		<path class="st2" d="M204.43,375.17h-29.92c-0.12,0-0.22-0.1-0.22-0.22v-43.01c0-1.78-1.45-3.22-3.22-3.22h-14.09
			c-1.78,0-3.22,1.45-3.22,3.22v58.56c0,1.78,1.44,3.22,3.22,3.22h47.45c1.78,0,3.22-1.45,3.22-3.22v-12.11
			C207.65,376.61,206.21,375.17,204.43,375.17z M68.16,328.72H22.15c-5.24,0-9.5,4.26-9.5,9.5v46c0,5.24,4.26,9.5,9.5,9.5h46.01
			c5.24,0,9.5-4.26,9.5-9.5v-46C77.66,332.98,73.4,328.72,68.16,328.72z M57.13,373.17c0,1.1-0.9,2-2,2H35.18c-1.1,0-2-0.9-2-2
			v-24.68c0-1.1,0.9-2,2-2h19.95c1.1,0,2,0.9,2,2C57.13,348.49,57.13,373.17,57.13,373.17z M143.71,328.72h-13.06
			c-1.78,0-3.22,1.44-3.22,3.22v25.81l-27.27-27.37c-0.94-0.95-2.66-1.66-4-1.66h-8.53c-1.78,0-3.22,1.44-3.22,3.22v58.56
			c0,1.78,1.44,3.22,3.22,3.22h13.05c1.78,0,3.22-1.45,3.22-3.22v-25.93l27.26,27.49c0.94,0.95,2.66,1.66,4,1.66h8.54
			c1.78,0,3.22-1.45,3.22-3.22v-58.56C146.93,330.16,145.49,328.72,143.71,328.72z M363.86,346.49c1.78,0,3.22-1.45,3.22-3.22
			v-11.33c0-1.78-1.45-3.22-3.22-3.22h-49.69c-1.78,0-3.22,1.44-3.22,3.22v58.56c0,1.78,1.45,3.22,3.22,3.22h49.69
			c1.78,0,3.22-1.45,3.22-3.22v-12.11c0-1.78-1.45-3.22-3.22-3.22h-32.38v-5.49h17.44c1.78,0,3.22-1.44,3.22-3.22v-11.33
			c0-1.78-1.45-3.22-3.22-3.22h-17.44v-5.41h32.38V346.49z M300.97,328.72h-13.06c-1.78,0-3.22,1.44-3.22,3.22v25.81l-27.26-27.37
			c-0.94-0.95-2.66-1.66-4-1.66h-8.52c-1.78,0-3.22,1.44-3.22,3.22v58.56c0,1.78,1.45,3.22,3.22,3.22h13.05
			c1.78,0,3.22-1.45,3.22-3.22v-25.93l27.26,27.49c0.94,0.95,2.66,1.66,4,1.66h8.54c1.78,0,3.22-1.45,3.22-3.22v-58.56
			C304.19,330.16,302.75,328.72,300.97,328.72z M231.65,328.72h-14.09c-1.78,0-3.22,1.45-3.22,3.22v58.56
			c0,1.78,1.45,3.22,3.22,3.22h14.09c1.78,0,3.22-1.45,3.22-3.22v-58.56C234.87,330.16,233.42,328.72,231.65,328.72z"/>
		<g>
			<g>
				<g>
					<path class="st0" d="M385.08,330.12c0.92,0,1.38,0.39,1.38,1.16c0,0.64-0.36,1.01-1.07,1.1l1.16,1.79h-0.68l-1.1-1.74h-0.67
						v1.74h-0.63v-4.05L385.08,330.12L385.08,330.12z M384.83,331.92c0.38,0,0.65-0.05,0.79-0.15s0.21-0.27,0.21-0.51
						c0-0.41-0.28-0.62-0.85-0.62h-0.87v1.29h0.72V331.92z"/>
				</g>
			</g>
			<path class="st0" d="M384.83,335.64c-1.93,0-3.5-1.57-3.5-3.5s1.57-3.5,3.5-3.5s3.5,1.57,3.5,3.5S386.76,335.64,384.83,335.64z
				 M384.83,329.19c-1.63,0-2.95,1.32-2.95,2.95s1.33,2.95,2.95,2.95c1.63,0,2.95-1.32,2.95-2.95S386.46,329.19,384.83,329.19z"/>
		</g>
	</g>
</g>
<g id="Guide">
</g>
</svg>
