<svg width="160" height="20" viewBox="0 0 160 20" fill="none" xmlns="http://www.w3.org/2000/svg">
<g clip-path="url(#clip0_5080_53145)">
<path d="M10.1704 8.02C10.1829 8.02209 10.1946 8.02791 10.2037 8.03667C13.2452 10.3111 18.453 15.9383 16.8653 17.5278C15.0115 19.1219 12.6325 20.0005 10.1698 20.0005C7.70709 20.0005 5.32804 19.1219 3.4743 17.5278C1.8866 15.9383 7.09382 10.3111 10.1353 8.03667C10.1451 8.02781 10.1572 8.02201 10.1704 8.02ZM15.4685 1.46444C13.9108 0.555556 12.2231 0 10.1704 0C8.11764 0 6.42992 0.555556 4.87216 1.46333C4.86351 1.46795 4.85696 1.47561 4.85381 1.48478C4.85067 1.49395 4.85117 1.50395 4.85521 1.51278C4.85997 1.52094 4.86754 1.52716 4.87655 1.53032C4.88557 1.53348 4.89543 1.53337 4.90437 1.53C6.87403 1.11167 9.86524 2.78389 10.1489 2.95167C10.1549 2.95664 10.1625 2.95937 10.1704 2.95937C10.1782 2.95937 10.1858 2.95664 10.1918 2.95167C10.4743 2.785 13.4689 1.11167 15.4363 1.53C15.4453 1.53337 15.4551 1.53348 15.4641 1.53032C15.4732 1.52716 15.4807 1.52094 15.4855 1.51278C15.4895 1.50395 15.49 1.49395 15.4869 1.48478C15.4837 1.47561 15.4772 1.46795 15.4685 1.46333V1.46444ZM3.0511 2.86944C3.03429 2.87829 3.01903 2.88973 3.0059 2.90333C1.25439 4.61222 0.194668 6.88907 0.0242829 9.30942C-0.146102 11.7298 0.58448 14.1285 2.07984 16.0583C2.08549 16.0675 2.09444 16.0742 2.1049 16.0772C2.11536 16.0802 2.12658 16.0792 2.13634 16.0744C2.1441 16.0685 2.14948 16.0601 2.15155 16.0506C2.15362 16.0412 2.15223 16.0313 2.14764 16.0228C1.37074 13.6667 5.33435 7.95222 7.38142 5.55556C7.38949 5.5479 7.3945 5.53765 7.39554 5.52667C7.39531 5.52018 7.39362 5.51383 7.39059 5.50807C7.38756 5.5023 7.38327 5.49727 7.37803 5.49333C4.2755 2.46056 3.22061 2.78278 3.0511 2.86944ZM12.9627 5.49444C12.9574 5.49838 12.9531 5.50341 12.9501 5.50918C12.9471 5.51494 12.9454 5.52129 12.9452 5.52778C12.9462 5.53876 12.9512 5.54901 12.9593 5.55667C15.0064 7.95222 18.97 13.6667 18.1936 16.0228C18.189 16.0313 18.1877 16.0412 18.1897 16.0506C18.1918 16.0601 18.1972 16.0685 18.2049 16.0744C18.2147 16.0792 18.2259 16.0802 18.2364 16.0772C18.2468 16.0742 18.2558 16.0675 18.2614 16.0583C19.7567 14.1284 20.4872 11.7297 20.3167 9.30932C20.1462 6.88896 19.0864 4.61215 17.3348 2.90333C17.3217 2.88973 17.3064 2.87829 17.2896 2.86944C17.1201 2.78278 16.0652 2.46056 12.9627 5.49444ZM35.394 16.1611H33.3124L29.7302 11.3133L26.1485 16.1611H24.0698L28.6928 9.905L24.4303 4.13944H26.5113L29.7319 8.49611L32.9525 4.13944H35.0312L30.771 9.90389L35.394 16.1611ZM46.196 12.7428C46.196 13.7983 45.84 14.6411 45.1372 15.2478C44.4343 15.8544 43.4144 16.1611 42.1036 16.1611H36.3709V10.8067H33.6469L34.7803 9.27333H36.3709V4.13944H41.8634C43.0946 4.13944 44.0523 4.42944 44.7089 5.00222C45.3654 5.575 45.6994 6.33889 45.6994 7.27111C45.6994 8.42722 45.166 9.30389 44.1173 9.87722C44.7953 10.1356 45.3163 10.515 45.6643 11.0061C46.0208 11.5162 46.2064 12.1229 46.1954 12.7417L46.196 12.7428ZM38.2383 9.27333H41.7414C42.4471 9.27333 42.9844 9.11778 43.3347 8.81056C43.6851 8.50333 43.8636 8.03722 43.8636 7.42167C43.8636 6.89056 43.6783 6.47056 43.3133 6.17222C42.9483 5.87389 42.4211 5.72222 41.7436 5.72222H38.2405L38.2383 9.27333ZM44.3111 12.7083C44.3111 12.0772 44.1173 11.5972 43.7353 11.2822C43.3534 10.9672 42.7686 10.8067 42.0002 10.8067H38.2383V14.5761H42.0002C42.746 14.5761 43.324 14.4133 43.7184 14.0917C44.1128 13.77 44.3111 13.3061 44.3111 12.7083ZM58.7541 10.1494C58.7541 11.0789 58.6168 11.9317 58.3462 12.6844C58.0821 13.4279 57.666 14.1102 57.1235 14.6894C56.5922 15.2559 55.9413 15.7013 55.2165 15.9944C54.499 16.2828 53.6842 16.4294 52.796 16.4294C51.8959 16.4294 51.0761 16.2828 50.3579 15.9944C49.6369 15.7038 48.9913 15.2581 48.4685 14.69C47.9201 14.1159 47.4991 13.436 47.2323 12.6933C46.9588 11.94 46.8204 11.0822 46.8204 10.1494C46.8204 9.21667 46.9588 8.36611 47.2323 7.61C47.5007 6.86198 47.9213 6.1756 48.4685 5.59278C48.9925 5.02895 49.638 4.58744 50.3579 4.30056C51.0761 4.015 51.8959 3.87 52.796 3.87C53.6842 3.87 54.499 4.015 55.2165 4.30056C55.94 4.58999 56.5907 5.03074 57.1235 5.59222C57.6656 6.17704 58.0815 6.86383 58.3462 7.61111C58.6168 8.36611 58.7541 9.22222 58.7541 10.1494ZM48.7533 10.1494C48.7533 11.5639 49.1262 12.6983 49.8619 13.5217C50.5856 14.355 51.5716 14.7778 52.7932 14.7778C54.0147 14.7778 55.0007 14.355 55.7239 13.5217C56.4477 12.7094 56.815 11.5772 56.815 10.1494C56.815 8.72167 56.4477 7.58389 55.7239 6.76056C54.9894 5.93833 54.0029 5.52111 52.7926 5.52111C51.5823 5.52111 50.5964 5.93833 49.8613 6.76056C49.129 7.60611 48.7555 8.74667 48.7555 10.1494H48.7533ZM64.6495 9.90389L68.9092 4.13944H66.8305L63.6099 8.49611L60.3893 4.13944H58.31L62.5697 9.90389L57.9484 16.16H60.0294L63.6116 11.3122L67.1933 16.16H69.2748L64.6495 9.90389ZM84.8207 5.79278V9.27556H90.8941V10.8089H84.8247V14.5106H91.6903V16.1622H82.9573V4.13889H91.6903V5.79056L84.8207 5.79278ZM80.5266 10.5933C79.9169 10.0439 78.9027 9.61778 77.5139 9.32667L76.4522 9.10778C75.4442 8.89611 74.7442 8.63667 74.3707 8.33667C74.0006 8.05889 73.813 7.64611 73.813 7.105C73.813 6.575 74.0238 6.16056 74.4391 5.87333C74.8544 5.58611 75.4691 5.43889 76.2601 5.43889C77.2772 5.43889 78.0264 5.62167 78.4835 5.98222C78.9406 6.34278 79.1994 6.91278 79.2559 7.67833V7.695H81.1052V7.67667C81.082 6.49889 80.6628 5.56 79.8576 4.88611C79.0525 4.21222 77.8371 3.87222 76.2415 3.87222C74.9199 3.87222 73.856 4.17056 73.0808 4.76111C72.3056 5.35167 71.9095 6.15 71.9095 7.14C71.9095 8.13 72.2338 8.91445 72.874 9.47611C73.5141 10.0378 74.4718 10.4461 75.7245 10.6922L76.7686 10.9111C77.7998 11.1333 78.5202 11.3906 78.9191 11.6744C79.318 11.9583 79.5107 12.3611 79.5107 12.8806C79.5107 13.5222 79.2683 14.0189 78.7909 14.3561C78.3134 14.6933 77.6145 14.8661 76.7212 14.8661C75.6403 14.8661 74.8148 14.6406 74.2667 14.1994C73.7187 13.7583 73.4345 13.0811 73.4192 12.1928V12.1667H71.5518V12.1844C71.5637 13.5639 72.0236 14.6289 72.9197 15.3456C73.8159 16.0622 75.0832 16.4272 76.689 16.4272C78.1699 16.4272 79.3446 16.1028 80.1836 15.4639C81.0227 14.825 81.4493 13.9356 81.4493 12.8239C81.4498 11.8939 81.1396 11.1417 80.5277 10.5911L80.5266 10.5933ZM102.923 14.6783L102.803 12.8106C102.78 12.1483 102.63 11.61 102.355 11.2106C102.088 10.8217 101.666 10.5406 101.1 10.37C101.724 10.165 102.219 9.81445 102.569 9.32889C102.928 8.82889 103.112 8.205 103.112 7.475C103.112 6.44167 102.732 5.61889 101.982 5.03056C101.231 4.44222 100.197 4.14167 98.8971 4.14167H93.5548V16.16H95.4228V11.2278H98.9485C99.648 11.2278 100.162 11.3872 100.474 11.7022C100.786 12.0172 100.966 12.5656 101 13.3317L101.051 14.6094C101.063 15.3056 101.185 15.8244 101.414 16.1511L101.419 16.1589H103.34L103.325 16.1322C103.116 15.7778 102.98 15.2878 102.924 14.6761L102.923 14.6783ZM95.4256 5.72222H98.7971C99.5655 5.72222 100.164 5.88556 100.575 6.20667C100.987 6.52778 101.195 7.01 101.195 7.64111C101.195 8.295 100.993 8.80778 100.593 9.16C100.194 9.51222 99.6327 9.69445 98.9361 9.69445H95.4273L95.4256 5.72222ZM104.8 16.16H106.668V4.13889H104.8V16.16ZM117.268 5.79056V4.13889H108.535V16.16H117.268V14.5083H110.405V10.8067H116.478V9.27333H110.405V5.79056H117.268ZM127.221 10.5911C126.611 10.0417 125.597 9.61556 124.208 9.32444L123.147 9.10556C122.139 8.89389 121.438 8.63445 121.065 8.33444C120.695 8.05667 120.507 7.64389 120.507 7.10278C120.507 6.57278 120.718 6.15833 121.133 5.87111C121.548 5.58389 122.163 5.43667 122.954 5.43667C123.972 5.43667 124.721 5.61944 125.178 5.98C125.635 6.34056 125.894 6.91056 125.95 7.67611V7.69278H127.799V7.67445C127.776 6.49667 127.356 5.55778 126.551 4.88389C125.747 4.21 124.53 3.87 122.935 3.87C121.613 3.87 120.55 4.16833 119.774 4.75889C118.998 5.34945 118.603 6.14778 118.603 7.13778C118.603 8.12778 118.928 8.91222 119.568 9.47389C120.208 10.0356 121.165 10.4439 122.418 10.69L123.462 10.9089C124.494 11.1311 125.217 11.3883 125.612 11.6722C126.008 11.9561 126.204 12.3589 126.204 12.8783C126.204 13.52 125.962 14.0167 125.484 14.3539C125.006 14.6911 124.308 14.8639 123.414 14.8639C122.334 14.8639 121.509 14.6383 120.961 14.1972C120.412 13.7561 120.128 13.0789 120.113 12.1906V12.1667H118.246V12.1844C118.257 13.5639 118.717 14.6289 119.614 15.3456C120.51 16.0622 121.776 16.4272 123.383 16.4272C124.864 16.4272 126.038 16.1028 126.877 15.4639C127.716 14.825 128.143 13.9356 128.143 12.8239C128.143 11.8939 127.833 11.1417 127.221 10.5911ZM147.105 2.63667H146.171V17.6622H147.104L147.105 2.63667ZM138.555 9.90389L142.814 4.13944H140.733L137.513 8.49611L134.292 4.13944H132.215L136.475 9.90389L131.852 16.16H133.933L137.515 11.3122L141.097 16.16H143.176L138.555 9.90389ZM159.078 10.5911C158.468 10.0417 157.455 9.61556 156.065 9.32444L155.004 9.10556C153.996 8.89389 153.295 8.63445 152.923 8.33444C152.552 8.05667 152.364 7.64445 152.364 7.10278C152.364 6.57278 152.575 6.15833 152.99 5.87111C153.406 5.58389 154.02 5.43667 154.812 5.43667C155.829 5.43667 156.578 5.61944 157.035 5.98C157.491 6.34056 157.753 6.91056 157.81 7.67611V7.69278H159.66V7.67445C159.637 6.49667 159.217 5.55778 158.412 4.88389C157.607 4.21 156.392 3.87 154.796 3.87C153.474 3.87 152.411 4.16833 151.635 4.75889C150.859 5.34945 150.464 6.14778 150.464 7.13778C150.464 8.12778 150.788 8.91222 151.429 9.47389C152.069 10.0356 153.026 10.4439 154.279 10.69L155.323 10.9089C156.354 11.1311 157.078 11.3883 157.473 11.6722C157.869 11.9561 158.065 12.3589 158.065 12.8783C158.065 13.52 157.823 14.0167 157.345 14.3539C156.867 14.6911 156.169 14.8639 155.275 14.8639C154.195 14.8639 153.369 14.6383 152.821 14.1972C152.274 13.7561 151.989 13.0789 151.974 12.1906V12.1667H150.103V12.1844C150.114 13.5639 150.574 14.6289 151.47 15.3456C152.367 16.0622 153.634 16.4272 155.24 16.4272C156.721 16.4272 157.895 16.1028 158.735 15.4639C159.575 14.825 160 13.9356 160 12.8239C160 11.8939 159.69 11.1417 159.078 10.5911Z" fill="white"/>
</g>
<defs>
<clipPath id="clip0_5080_53145">
<rect width="160" height="20" fill="white"/>
</clipPath>
</defs>
</svg>
