<svg width="96" height="21" viewBox="0 0 96 21" fill="none" xmlns="http://www.w3.org/2000/svg">
<g clip-path="url(#clip0_19435_44618)">
<path d="M10.0167 0V19.2781L14.378 20.6695V4.4885C14.378 3.74041 14.7147 3.22424 15.2608 3.3963C16.0089 3.59828 16.1136 4.294 16.1136 5.04956V11.5205C18.8366 12.8296 20.9761 11.5205 20.9761 8.04937C20.9761 4.57827 19.7194 2.91752 16.0238 1.64578C14.0555 0.979874 12.0496 0.430331 10.0167 0V0Z" fill="white"/>
<path d="M15.2081 17.8494L22.2251 15.3508C23.0181 15.059 23.1452 14.655 22.4944 14.4456C21.6286 14.2466 20.7244 14.2932 19.8836 14.5802L15.2081 16.226V13.6077L15.4774 13.518C16.5253 13.1773 17.6059 12.9466 18.7016 12.8297C20.7495 12.625 22.8172 12.8806 24.7536 13.5778C26.8183 14.2286 27.0427 15.1862 26.5266 15.8221C26.0125 16.3276 25.3948 16.7156 24.7162 16.9591L15.2081 20.3779V17.8494Z" fill="white"/>
<path d="M2.01198 17.5796C-0.105089 16.9886 -0.456688 15.7468 0.515819 15.0361C1.26359 14.5489 2.07058 14.1592 2.91717 13.8766L9.17114 11.6323V14.2132L4.68264 15.8216C3.88967 16.1133 3.7625 16.5173 4.41333 16.7268C5.27917 16.9257 6.18336 16.8791 7.02414 16.5921L9.1861 15.844V18.0883L8.75221 18.1631C6.49678 18.5271 4.18675 18.3397 2.01947 17.617" fill="white"/>
<path d="M75.4362 4.89258H67.11C64.6937 4.89258 63.5118 6.38874 63.5118 8.3188V14.2137C63.5118 15.4181 62.9432 16.2784 61.7388 16.2784H53.9139C53.9021 16.2784 53.8904 16.2807 53.8795 16.2852C53.8686 16.2897 53.8587 16.2964 53.8504 16.3047C53.8421 16.313 53.8354 16.3229 53.8309 16.3338C53.8264 16.3447 53.8241 16.3564 53.8241 16.3682V17.5501C53.8241 17.5619 53.8264 17.5736 53.8309 17.5845C53.8354 17.5954 53.8421 17.6053 53.8504 17.6136C53.8587 17.622 53.8686 17.6286 53.8795 17.6331C53.8904 17.6376 53.9021 17.6399 53.9139 17.6399H62.644C65.0603 17.6399 66.2423 16.1437 66.2423 14.2212V8.3188C66.2423 7.11438 66.8108 6.25409 68.0152 6.25409H75.4362C75.448 6.25409 75.4597 6.25177 75.4706 6.24726C75.4815 6.24274 75.4914 6.23613 75.4997 6.2278C75.508 6.21946 75.5146 6.20956 75.5191 6.19867C75.5237 6.18778 75.526 6.17611 75.526 6.16432V4.98235C75.526 4.97056 75.5237 4.95889 75.5191 4.94799C75.5146 4.9371 75.508 4.92721 75.4997 4.91887C75.4914 4.91054 75.4815 4.90392 75.4706 4.89941C75.4597 4.8949 75.448 4.89258 75.4362 4.89258" fill="white"/>
<path d="M50.8692 4.89258H35.7654C35.7422 4.89431 35.7204 4.90432 35.7039 4.92079C35.6874 4.93727 35.6774 4.95911 35.6757 4.98235V6.16432C35.6757 6.18813 35.6851 6.21096 35.702 6.2278C35.7188 6.24463 35.7416 6.25409 35.7654 6.25409H49.9267C51.1311 6.25409 51.6996 7.12186 51.6996 8.3188C51.6996 9.51573 51.1311 10.3835 49.9267 10.3835H38.7054C38.2795 10.3985 37.8609 10.4992 37.4747 10.6796C37.0886 10.8599 36.7427 11.1163 36.4578 11.4333C36.1729 11.7503 35.9549 12.1214 35.8166 12.5246C35.6784 12.9278 35.6228 13.3547 35.6532 13.7798V17.5202C35.6532 17.532 35.6556 17.5437 35.6601 17.5546C35.6646 17.5655 35.6712 17.5754 35.6795 17.5837C35.6879 17.592 35.6978 17.5986 35.7086 17.6032C35.7195 17.6077 35.7312 17.61 35.743 17.61H38.3014C38.3253 17.61 38.3481 17.6005 38.3649 17.5837C38.3818 17.5669 38.3912 17.544 38.3912 17.5202V13.7798C38.3912 12.5829 39.0795 11.745 40.0744 11.745H50.8692C53.2855 11.745 54.4675 10.2489 54.4675 8.3188C54.4675 6.38874 53.2481 4.89258 50.8692 4.89258Z" fill="white"/>
<path d="M95.208 14.9094H92.6496C92.6264 14.9077 92.6045 14.8977 92.5881 14.8812C92.5716 14.8647 92.5616 14.8429 92.5598 14.8196V6.24661C92.5598 4.92998 91.6472 4.50358 90.368 5.28906L75.0173 14.7224C74.4113 15.0889 74.2094 15.5079 74.3515 15.8146C74.4936 16.1213 74.8153 16.2709 75.4736 16.2709H89.7695C89.7873 16.2734 89.8039 16.2811 89.8172 16.2931C89.8305 16.3051 89.84 16.3208 89.8443 16.3382V17.5427C89.8443 17.5665 89.8538 17.5893 89.8706 17.6061C89.8874 17.623 89.9103 17.6324 89.9341 17.6324H92.5C92.5238 17.6324 92.5466 17.623 92.5635 17.6061C92.5803 17.5893 92.5898 17.5665 92.5898 17.5427V16.3607C92.5915 16.3375 92.6015 16.3156 92.618 16.2991C92.6345 16.2827 92.6563 16.2726 92.6795 16.2709H95.238C95.2618 16.2709 95.2846 16.2615 95.3014 16.2446C95.3183 16.2278 95.3277 16.205 95.3277 16.1811V14.9992C95.326 14.9759 95.316 14.9541 95.2995 14.9376C95.2831 14.9211 95.2612 14.9111 95.238 14.9094H95.208ZM89.8518 14.8122C89.8519 14.8367 89.8426 14.8604 89.826 14.8784C89.8093 14.8964 89.7865 14.9075 89.762 14.9094H77.8002C77.7029 14.9094 77.6505 14.9094 77.6356 14.8496C77.6206 14.7897 77.6356 14.7523 77.7254 14.6999L89.6199 7.37621C89.7022 7.32385 89.8443 7.33133 89.8443 7.49591L89.8518 14.8122Z" fill="white"/>
</g>
<defs>
<clipPath id="clip0_19435_44618">
<rect width="95.7546" height="20.9463" fill="white"/>
</clipPath>
</defs>
</svg>
